<?xml version="1.0" standalone="no"?><!DOCTYPE svg PUBLIC "-//W3C//DTD SVG 1.1//EN" "http://www.w3.org/Graphics/SVG/1.1/DTD/svg11.dtd"><svg t="1506225119778" class="icon" style="" viewBox="0 0 1024 1024" version="1.1" xmlns="http://www.w3.org/2000/svg" p-id="5995" xmlns:xlink="http://www.w3.org/1999/xlink" width="200" height="200"><defs><style type="text/css"></style></defs><path d="M365.714286 438.857143l292.571429 0 0-109.714286q0-60.562286-42.861714-103.424t-103.424-42.861714-103.424 42.861714-42.861714 103.424l0 109.714286zM841.142857 493.714286l0 329.142857q0 22.820571-16.018286 38.838857t-38.838857 16.018286l-548.571429 0q-22.820571 0-38.838857-16.018286t-16.018286-38.838857l0-329.142857q0-22.820571 16.018286-38.838857t38.838857-16.018286l18.285714 0 0-109.714286q0-105.179429 75.410286-180.589714t180.589714-75.410286 180.589714 75.410286 75.410286 180.589714l0 109.714286 18.285714 0q22.820571 0 38.838857 16.018286t16.018286 38.838857z" p-id="5996"></path></svg>